<svg xmlns="http://www.w3.org/2000/svg" viewBox="0 0 512 512">
  <rect width="512" height="512" rx="96" fill="#1A1228"/>

  <g transform="translate(256,256)">
    <ellipse cx="0" cy="8" rx="140" ry="148" fill="#FF7AD9" opacity="0.05"/>

    <path d="M0,-160 C0,-160 110,-125 120,-70 C130,-15 110,55 75,103 C45,140 22,160 0,172 C-22,160 -45,140 -75,103 C-110,55 -130,-15 -120,-70 C-110,-125 0,-160 0,-160Z"
          fill="#141418" stroke="#FF7AD9" stroke-width="2.5"/>
    <path d="M0,-136 C0,-136 92,-105 101,-56 C110,-7 92,47 62,87 C38,112 20,130 0,140 C-20,130 -38,112 -62,87 C-92,47 -110,-7 -101,-56 C-92,-105 0,-136 0,-136Z"
          fill="none" stroke="#FF7AD9" stroke-width="1" opacity="0.3"/>

    <polygon points="0,-78 68,-39 68,39 0,78 -68,39 -68,-39"
             fill="none" stroke="#FF7AD9" stroke-width="0.8" opacity="0.35"/>
    <polygon points="0,-108 93,-54 93,54 0,108 -93,54 -93,-54"
             fill="none" stroke="#FF7AD9" stroke-width="0.6" opacity="0.2"/>

    <polygon points="0,-48 41,-24 41,24 0,48 -41,24 -41,-24"
             fill="#FF7AD9" opacity="0.12"/>
    <polygon points="0,-48 41,-24 41,24 0,48 -41,24 -41,-24"
             fill="none" stroke="#FF7AD9" stroke-width="1.5"/>

    <line x1="-13" y1="-28" x2="-13" y2="28" stroke="#FF7AD9" stroke-width="2.5" stroke-linecap="round"/>
    <line x1="13" y1="-28" x2="13" y2="28" stroke="#FF7AD9" stroke-width="2.5" stroke-linecap="round"/>
    <line x1="-28" y1="-10" x2="28" y2="-10" stroke="#FF7AD9" stroke-width="2.5" stroke-linecap="round"/>
    <line x1="-28" y1="10" x2="28" y2="10" stroke="#FF7AD9" stroke-width="2.5" stroke-linecap="round"/>

    <circle cx="0" cy="-48" r="4" fill="#FF7AD9"/>
    <circle cx="41" cy="-24" r="4" fill="#FF7AD9"/>
    <circle cx="41" cy="24" r="4" fill="#FF7AD9"/>
    <circle cx="0" cy="48" r="4" fill="#FF7AD9"/>
    <circle cx="-41" cy="24" r="4" fill="#FF7AD9"/>
    <circle cx="-41" cy="-24" r="4" fill="#FF7AD9"/>

    <circle cx="0" cy="-110" r="13" fill="#1A1A22" stroke="#FF7AD9" stroke-width="1.8"/>
    <circle cx="0" cy="-110" r="4.5" fill="#FF7AD9"/>
    <circle cx="85" cy="-65" r="11" fill="#1A1A22" stroke="#FF7AD9" stroke-width="1.6"/>
    <circle cx="85" cy="-65" r="3.5" fill="#FF7AD9"/>
    <circle cx="92" cy="35" r="11" fill="#1A1A22" stroke="#FF7AD9" stroke-width="1.6"/>
    <circle cx="92" cy="35" r="3.5" fill="#FF7AD9"/>
    <circle cx="0" cy="110" r="13" fill="#1A1A22" stroke="#FF7AD9" stroke-width="1.8"/>
    <circle cx="0" cy="110" r="4.5" fill="#FF7AD9"/>
    <circle cx="-92" cy="35" r="11" fill="#1A1A22" stroke="#FF7AD9" stroke-width="1.6"/>
    <circle cx="-92" cy="35" r="3.5" fill="#FF7AD9"/>
    <circle cx="-85" cy="-65" r="11" fill="#1A1A22" stroke="#FF7AD9" stroke-width="1.6"/>
    <circle cx="-85" cy="-65" r="3.5" fill="#FF7AD9"/>

    <line x1="0" y1="-60" x2="0" y2="-97" stroke="#FF7AD9" stroke-width="1.2" stroke-dasharray="5 4" opacity="0.5"/>
    <line x1="41" y1="-24" x2="76" y2="-59" stroke="#FF7AD9" stroke-width="1.2" stroke-dasharray="5 4" opacity="0.5"/>
    <line x1="41" y1="24" x2="83" y2="28" stroke="#FF7AD9" stroke-width="1.2" stroke-dasharray="5 4" opacity="0.5"/>
    <line x1="0" y1="48" x2="0" y2="97" stroke="#FF7AD9" stroke-width="1.2" stroke-dasharray="5 4" opacity="0.5"/>
    <line x1="-41" y1="24" x2="-83" y2="28" stroke="#FF7AD9" stroke-width="1.2" stroke-dasharray="5 4" opacity="0.5"/>
    <line x1="-41" y1="-24" x2="-76" y2="-59" stroke="#FF7AD9" stroke-width="1.2" stroke-dasharray="5 4" opacity="0.5"/>
  </g>
</svg>
