<svg xmlns="http://www.w3.org/2000/svg" viewBox="0 0 64 70">
  <rect width="64" height="70" rx="14" fill="#0B0B0E"/>

  <!-- Shield -->
  <path d="M32 6 C32 6 54 14 56 28 C58 42 52 54 44 60 C40 63 36 64.5 32 66 C28 64.5 24 63 20 60 C12 54 6 42 8 28 C10 14 32 6 32 6Z"
        fill="#141418" stroke="#FF7AD9" stroke-width="1.2"/>
  <!-- Inner shield -->
  <path d="M32 12 C32 12 48 18 50 30 C52 42 46 51 40 56 C37 58.5 34.5 60 32 61 C29.5 60 27 58.5 24 56 C18 51 12 42 14 30 C16 18 32 12 32 12Z"
        fill="none" stroke="#FF7AD9" stroke-width="0.6" opacity="0.3"/>

  <!-- Central hex -->
  <polygon points="32,22 40,26.6 40,36 32,40.6 24,36 24,26.6"
           fill="#FF7AD9" opacity="0.12"/>
  <polygon points="32,22 40,26.6 40,36 32,40.6 24,36 24,26.6"
           fill="none" stroke="#FF7AD9" stroke-width="1"/>

  <!-- Hash mark -->
  <line x1="28" y1="25" x2="28" y2="38" stroke="#FF7AD9" stroke-width="1.8" stroke-linecap="round"/>
  <line x1="36" y1="25" x2="36" y2="38" stroke="#FF7AD9" stroke-width="1.8" stroke-linecap="round"/>
  <line x1="23" y1="29.5" x2="41" y2="29.5" stroke="#FF7AD9" stroke-width="1.8" stroke-linecap="round"/>
  <line x1="23" y1="33.5" x2="41" y2="33.5" stroke="#FF7AD9" stroke-width="1.8" stroke-linecap="round"/>

  <!-- Hex vertex dots -->
  <circle cx="32" cy="22" r="1.8" fill="#FF7AD9"/>
  <circle cx="40" cy="26.6" r="1.8" fill="#FF7AD9"/>
  <circle cx="40" cy="36" r="1.8" fill="#FF7AD9"/>
  <circle cx="32" cy="40.6" r="1.8" fill="#FF7AD9"/>
  <circle cx="24" cy="36" r="1.8" fill="#FF7AD9"/>
  <circle cx="24" cy="26.6" r="1.8" fill="#FF7AD9"/>
</svg>
